<?xml version="1.0" standalone="no"?>
<!DOCTYPE svg PUBLIC "-//W3C//DTD SVG 20010904//EN"
 "http://www.w3.org/TR/2001/REC-SVG-20010904/DTD/svg10.dtd">
<svg version="1.0" xmlns="http://www.w3.org/2000/svg"
 width="260.000000pt" height="260.000000pt" viewBox="0 0 260.000000 260.000000"
 preserveAspectRatio="xMidYMid meet">
<metadata>
Created by potrace 1.11, written by Peter Selinger 2001-2013
</metadata>
<g transform="translate(0.000000,260.000000) scale(0.100000,-0.100000)"
fill="#000000" stroke="none">
<path d="M0 1300 l0 -1300 1300 0 1300 0 0 1300 0 1300 -1300 0 -1300 0 0
-1300z m537 66 c-6 -17 -47 -20 -47 -3 0 9 6 17 13 20 18 6 38 -4 34 -17z
m223 -2 c0 -8 -9 -14 -20 -14 -19 0 -27 19 -14 33 10 9 34 -4 34 -19z m340
-74 c0 -89 0 -90 -25 -90 -25 0 -25 1 -25 90 0 89 0 90 25 90 25 0 25 -1 25
-90z m700 43 l1 -48 18 23 c11 12 29 22 40 22 26 0 26 -8 4 -33 -17 -18 -16
-21 5 -58 l23 -39 -25 0 c-15 0 -30 8 -36 20 -6 11 -15 20 -20 20 -6 0 -10 -9
-10 -20 0 -15 -7 -20 -25 -20 -25 0 -25 1 -25 90 0 89 0 90 25 90 23 0 25 -4
25 -47z m-1363 15 c32 -30 32 -90 -2 -123 -18 -19 -35 -25 -70 -25 l-45 0 0
85 0 85 47 0 c34 0 53 -6 70 -22z m870 -4 c15 -24 15 -29 2 -53 -9 -16 -25
-27 -42 -29 -22 -3 -27 -8 -27 -33 0 -24 -4 -29 -25 -29 -25 0 -25 1 -25 85
l0 85 50 0 c42 0 52 -4 67 -26z m-463 1 c3 -8 12 -15 21 -15 8 0 15 -7 15 -15
0 -8 -9 -15 -21 -15 -17 0 -20 -5 -17 -32 2 -25 7 -32 21 -30 12 2 17 -4 17
-18 0 -18 -5 -21 -37 -18 -37 3 -38 4 -41 48 -2 24 -8 48 -14 51 -7 5 -4 16 8
33 22 29 39 33 48 11z m1410 0 c3 -8 12 -15 21 -15 8 0 15 -7 15 -15 0 -8 -9
-15 -21 -15 -17 0 -20 -5 -17 -32 2 -25 7 -32 21 -30 12 2 17 -4 17 -18 0 -18
-5 -21 -37 -18 -37 3 -38 4 -41 48 -2 24 -8 48 -14 51 -7 5 -4 16 8 33 22 29
39 33 48 11z m-1714 -80 c0 -63 -1 -65 -25 -65 -24 0 -25 2 -25 65 0 63 1 65
25 65 24 0 25 -2 25 -65z m160 55 c0 -5 -4 -10 -9 -10 -5 0 -11 -13 -14 -29
-5 -23 -13 -31 -39 -37 l-33 -8 40 -6 c32 -4 41 -10 43 -28 2 -13 -2 -29 -8
-37 -17 -20 -74 -29 -99 -16 -22 12 -29 51 -10 51 6 0 8 7 5 16 -4 9 -1 23 5
30 8 10 8 14 0 14 -15 0 -14 43 1 58 14 14 118 16 118 2z m60 -55 c0 -58 -2
-65 -20 -65 -18 0 -20 7 -20 65 0 58 2 65 20 65 18 0 20 -7 20 -65z m248 53
c7 -7 12 -35 12 -64 l0 -51 -55 -1 c-44 0 -57 3 -65 19 -16 29 4 59 40 59 17
0 30 5 30 11 0 6 -12 9 -27 7 -20 -2 -29 2 -31 15 -3 14 4 17 40 17 24 0 49
-5 56 -12z m450 -54 l3 -62 -52 2 c-38 1 -55 6 -63 19 -15 23 3 51 35 55 39 6
47 22 11 22 -22 0 -32 5 -32 16 0 12 10 14 48 12 l47 -3 3 -61z m132 45 c0
-12 -7 -19 -19 -19 -21 0 -31 -19 -31 -61 0 -22 -5 -29 -20 -29 -18 0 -20 7
-20 63 l0 64 45 1 c38 0 45 -3 45 -19z m118 9 c7 -7 12 -35 12 -64 l0 -51 -55
-1 c-44 0 -57 3 -65 19 -16 29 4 59 40 59 17 0 30 5 30 11 0 6 -12 9 -27 7
-20 -2 -29 2 -31 15 -3 14 4 17 40 17 24 0 49 -5 56 -12z m306 -7 c28 -31 17
-55 -29 -61 -27 -3 -36 -8 -27 -13 7 -5 24 -6 38 -3 21 6 25 3 22 -11 -5 -28
-71 -30 -97 -4 -25 25 -27 68 -4 93 22 24 75 23 97 -1z m144 7 c7 -7 12 -25
12 -40 0 -25 -3 -28 -35 -28 -19 0 -35 -5 -35 -11 0 -7 12 -10 30 -7 24 4 30
1 30 -14 0 -14 -8 -18 -39 -18 -50 0 -71 21 -71 69 0 46 14 61 60 61 20 0 41
-5 48 -12z"/>
<path d="M360 1285 c0 -39 3 -45 20 -45 26 0 44 43 30 71 -6 10 -20 19 -30 19
-17 0 -20 -7 -20 -45z"/>
<path d="M1240 1310 c0 -13 5 -18 15 -14 8 4 15 12 15 20 0 8 -7 14 -15 14 -8
0 -15 -9 -15 -20z"/>
<path d="M615 1300 c-4 -6 -3 -16 3 -22 6 -6 12 -6 17 2 4 6 3 16 -3 22 -6 6
-12 6 -17 -2z"/>
<path d="M607 1193 c-13 -12 -7 -23 12 -23 26 0 35 16 15 24 -19 7 -19 7 -27
-1z"/>
<path d="M947 1253 c-12 -11 -8 -23 8 -23 8 0 15 7 15 15 0 16 -12 20 -23 8z"/>
<path d="M1390 1244 c0 -17 22 -14 28 4 2 7 -3 12 -12 12 -9 0 -16 -7 -16 -16z"/>
<path d="M1647 1253 c-12 -11 -8 -23 8 -23 8 0 15 7 15 15 0 16 -12 20 -23 8z"/>
<path d="M1950 1290 c0 -5 7 -10 15 -10 8 0 15 5 15 10 0 6 -7 10 -15 10 -8 0
-15 -4 -15 -10z"/>
<path d="M2100 1290 c0 -5 7 -10 15 -10 8 0 15 5 15 10 0 6 -7 10 -15 10 -8 0
-15 -4 -15 -10z"/>
</g>
</svg>
